<mxfile host="app.diagrams.net" modified="2020-04-15T03:09:25.049Z" agent="5.0 (Macintosh; Intel Mac OS X 10_15_3) AppleWebKit/537.36 (KHTML, like Gecko) Chrome/80.0.3987.163 Safari/537.36" etag="SsUagezi9PF7hD0RJKRM" version="12.9.11" type="github">
  <diagram id="OBpz-HxGuRN2mtiWmTwj" name="Page-1">
    <mxGraphModel dx="1186" dy="764" grid="1" gridSize="10" guides="1" tooltips="1" connect="1" arrows="1" fold="1" page="1" pageScale="1" pageWidth="827" pageHeight="1169" math="0" shadow="0">
      <root>
        <mxCell id="0" />
        <mxCell id="1" parent="0" />
        <mxCell id="kIqzt4APMeg7fTaLDbrO-1" value="DS" style="rounded=0;whiteSpace=wrap;html=1;" vertex="1" parent="1">
          <mxGeometry x="120" y="1141" width="59" height="60" as="geometry" />
        </mxCell>
        <mxCell id="kIqzt4APMeg7fTaLDbrO-2" value="TM" style="rounded=0;whiteSpace=wrap;html=1;" vertex="1" parent="1">
          <mxGeometry x="378.5" y="961" width="120" height="60" as="geometry" />
        </mxCell>
        <mxCell id="kIqzt4APMeg7fTaLDbrO-3" value="ES1" style="rounded=0;whiteSpace=wrap;html=1;" vertex="1" parent="1">
          <mxGeometry x="512.5" y="1146" width="60" height="60" as="geometry" />
        </mxCell>
        <mxCell id="kIqzt4APMeg7fTaLDbrO-4" value="ESB" style="rounded=0;whiteSpace=wrap;html=1;" vertex="1" parent="1">
          <mxGeometry x="732.5" y="1146" width="60" height="60" as="geometry" />
        </mxCell>
        <mxCell id="kIqzt4APMeg7fTaLDbrO-5" value="ES2" style="rounded=0;whiteSpace=wrap;html=1;" vertex="1" parent="1">
          <mxGeometry x="586.5" y="1146" width="60" height="60" as="geometry" />
        </mxCell>
        <mxCell id="kIqzt4APMeg7fTaLDbrO-6" value="ESA" style="rounded=0;whiteSpace=wrap;html=1;" vertex="1" parent="1">
          <mxGeometry x="662.5" y="1146" width="60" height="60" as="geometry" />
        </mxCell>
        <mxCell id="kIqzt4APMeg7fTaLDbrO-7" value="DS" style="rounded=0;whiteSpace=wrap;html=1;" vertex="1" parent="1">
          <mxGeometry x="219" y="1141" width="60" height="60" as="geometry" />
        </mxCell>
        <mxCell id="kIqzt4APMeg7fTaLDbrO-8" value="Datamarket" style="rounded=0;whiteSpace=wrap;html=1;" vertex="1" parent="1">
          <mxGeometry x="223.5" y="721" width="120" height="60" as="geometry" />
        </mxCell>
        <mxCell id="kIqzt4APMeg7fTaLDbrO-9" value="" style="endArrow=classic;html=1;exitX=0.5;exitY=0;exitDx=0;exitDy=0;entryX=0.5;entryY=1;entryDx=0;entryDy=0;" edge="1" parent="1" source="kIqzt4APMeg7fTaLDbrO-1" target="kIqzt4APMeg7fTaLDbrO-32">
          <mxGeometry width="50" height="50" relative="1" as="geometry">
            <mxPoint x="342.5" y="901" as="sourcePoint" />
            <mxPoint x="392.5" y="851" as="targetPoint" />
          </mxGeometry>
        </mxCell>
        <mxCell id="kIqzt4APMeg7fTaLDbrO-43" value="2.del数据集" style="edgeLabel;html=1;align=center;verticalAlign=middle;resizable=0;points=[];" vertex="1" connectable="0" parent="kIqzt4APMeg7fTaLDbrO-9">
          <mxGeometry x="-0.0787" y="1" relative="1" as="geometry">
            <mxPoint as="offset" />
          </mxGeometry>
        </mxCell>
        <mxCell id="kIqzt4APMeg7fTaLDbrO-10" value="Seller" style="shape=umlActor;verticalLabelPosition=bottom;labelBackgroundColor=#ffffff;verticalAlign=top;html=1;outlineConnect=0;" vertex="1" parent="1">
          <mxGeometry x="134.5" y="1281" width="30" height="60" as="geometry" />
        </mxCell>
        <mxCell id="kIqzt4APMeg7fTaLDbrO-11" value="" style="endArrow=classic;html=1;exitX=0.5;exitY=0.5;exitDx=0;exitDy=0;exitPerimeter=0;entryX=0.5;entryY=1;entryDx=0;entryDy=0;" edge="1" parent="1" source="kIqzt4APMeg7fTaLDbrO-10" target="kIqzt4APMeg7fTaLDbrO-1">
          <mxGeometry width="50" height="50" relative="1" as="geometry">
            <mxPoint x="182.5" y="971" as="sourcePoint" />
            <mxPoint x="232.5" y="921" as="targetPoint" />
          </mxGeometry>
        </mxCell>
        <mxCell id="kIqzt4APMeg7fTaLDbrO-12" value="&lt;span style=&quot;font-family: monospace ; font-size: 0px&quot;&gt;%3CmxGraphModel%3E%3Croot%3E%3CmxCell%20id%3D%220%22%2F%3E%3CmxCell%20id%3D%221%22%20parent%3D%220%22%2F%3E%3CmxCell%20id%3D%222%22%20value%3D%225%E2%80%99.%E6%9F%A5%E7%9C%8B%E7%BB%93%E6%9E%9C%22%20style%3D%22edgeLabel%3Bhtml%3D1%3Balign%3Dcenter%3BverticalAlign%3Dmiddle%3Bresizable%3D0%3Bpoints%3D%5B%5D%3B%22%20vertex%3D%221%22%20connectable%3D%220%22%20parent%3D%221%22%3E%3CmxGeometry%20x%3D%22227%22%20y%3D%221227%22%20as%3D%22geometry%22%3E%3CmxPoint%20as%3D%22offset%22%2F%3E%3C%2FmxGeometry%3E%3C%2FmxCell%3E%3C%2Froot%3E%3C%2FmxGraphModel%3E查&lt;/span&gt;" style="edgeLabel;html=1;align=center;verticalAlign=middle;resizable=0;points=[];" vertex="1" connectable="0" parent="kIqzt4APMeg7fTaLDbrO-11">
          <mxGeometry x="0.2182" y="2" relative="1" as="geometry">
            <mxPoint x="1" as="offset" />
          </mxGeometry>
        </mxCell>
        <mxCell id="kIqzt4APMeg7fTaLDbrO-13" value="1.del数据集" style="edgeLabel;html=1;align=center;verticalAlign=middle;resizable=0;points=[];" vertex="1" connectable="0" parent="kIqzt4APMeg7fTaLDbrO-11">
          <mxGeometry x="0.1091" relative="1" as="geometry">
            <mxPoint x="1" as="offset" />
          </mxGeometry>
        </mxCell>
        <mxCell id="kIqzt4APMeg7fTaLDbrO-14" value="" style="endArrow=classic;html=1;entryX=0.5;entryY=0;entryDx=0;entryDy=0;exitX=0.5;exitY=1;exitDx=0;exitDy=0;" edge="1" parent="1" source="kIqzt4APMeg7fTaLDbrO-2" target="kIqzt4APMeg7fTaLDbrO-3">
          <mxGeometry width="50" height="50" relative="1" as="geometry">
            <mxPoint x="476.5" y="991" as="sourcePoint" />
            <mxPoint x="526.5" y="941" as="targetPoint" />
          </mxGeometry>
        </mxCell>
        <mxCell id="kIqzt4APMeg7fTaLDbrO-15" value="" style="endArrow=classic;html=1;entryX=0.5;entryY=0;entryDx=0;entryDy=0;exitX=0.5;exitY=1;exitDx=0;exitDy=0;" edge="1" parent="1" source="kIqzt4APMeg7fTaLDbrO-2" target="kIqzt4APMeg7fTaLDbrO-4">
          <mxGeometry width="50" height="50" relative="1" as="geometry">
            <mxPoint x="476.5" y="991" as="sourcePoint" />
            <mxPoint x="526.5" y="941" as="targetPoint" />
          </mxGeometry>
        </mxCell>
        <mxCell id="kIqzt4APMeg7fTaLDbrO-17" value="" style="endArrow=classic;html=1;entryX=0.5;entryY=0;entryDx=0;entryDy=0;exitX=0.5;exitY=1;exitDx=0;exitDy=0;" edge="1" parent="1" source="kIqzt4APMeg7fTaLDbrO-2" target="kIqzt4APMeg7fTaLDbrO-5">
          <mxGeometry width="50" height="50" relative="1" as="geometry">
            <mxPoint x="476.5" y="991" as="sourcePoint" />
            <mxPoint x="526.5" y="941" as="targetPoint" />
          </mxGeometry>
        </mxCell>
        <mxCell id="kIqzt4APMeg7fTaLDbrO-18" value="" style="endArrow=classic;html=1;entryX=0.5;entryY=0;entryDx=0;entryDy=0;exitX=0.5;exitY=1;exitDx=0;exitDy=0;" edge="1" parent="1" source="kIqzt4APMeg7fTaLDbrO-2" target="kIqzt4APMeg7fTaLDbrO-6">
          <mxGeometry width="50" height="50" relative="1" as="geometry">
            <mxPoint x="476.5" y="991" as="sourcePoint" />
            <mxPoint x="526.5" y="941" as="targetPoint" />
          </mxGeometry>
        </mxCell>
        <mxCell id="kIqzt4APMeg7fTaLDbrO-19" value="" style="endArrow=classic;html=1;entryX=0.5;entryY=1;entryDx=0;entryDy=0;exitX=0.5;exitY=0;exitDx=0;exitDy=0;" edge="1" parent="1" source="kIqzt4APMeg7fTaLDbrO-7" target="kIqzt4APMeg7fTaLDbrO-32">
          <mxGeometry width="50" height="50" relative="1" as="geometry">
            <mxPoint x="572.5" y="861" as="sourcePoint" />
            <mxPoint x="392.5" y="841" as="targetPoint" />
          </mxGeometry>
        </mxCell>
        <mxCell id="kIqzt4APMeg7fTaLDbrO-20" value="" style="endArrow=classic;html=1;entryX=0.25;entryY=0;entryDx=0;entryDy=0;exitX=0.25;exitY=1;exitDx=0;exitDy=0;" edge="1" parent="1" source="kIqzt4APMeg7fTaLDbrO-38" target="kIqzt4APMeg7fTaLDbrO-2">
          <mxGeometry width="50" height="50" relative="1" as="geometry">
            <mxPoint x="342.5" y="891" as="sourcePoint" />
            <mxPoint x="392.5" y="841" as="targetPoint" />
          </mxGeometry>
        </mxCell>
        <mxCell id="kIqzt4APMeg7fTaLDbrO-22" value="" style="endArrow=classic;html=1;exitX=1;exitY=0.5;exitDx=0;exitDy=0;" edge="1" parent="1" source="kIqzt4APMeg7fTaLDbrO-1">
          <mxGeometry width="50" height="50" relative="1" as="geometry">
            <mxPoint x="342.5" y="891" as="sourcePoint" />
            <mxPoint x="438.5" y="1021" as="targetPoint" />
          </mxGeometry>
        </mxCell>
        <mxCell id="kIqzt4APMeg7fTaLDbrO-24" value="" style="endArrow=classic;html=1;exitX=1;exitY=0.5;exitDx=0;exitDy=0;entryX=0.5;entryY=1;entryDx=0;entryDy=0;" edge="1" parent="1" source="kIqzt4APMeg7fTaLDbrO-7" target="kIqzt4APMeg7fTaLDbrO-2">
          <mxGeometry width="50" height="50" relative="1" as="geometry">
            <mxPoint x="342.5" y="891" as="sourcePoint" />
            <mxPoint x="392.5" y="841" as="targetPoint" />
          </mxGeometry>
        </mxCell>
        <mxCell id="kIqzt4APMeg7fTaLDbrO-25" value="Buyer" style="shape=umlActor;verticalLabelPosition=bottom;labelBackgroundColor=#ffffff;verticalAlign=top;html=1;outlineConnect=0;" vertex="1" parent="1">
          <mxGeometry x="268.5" y="581" width="30" height="60" as="geometry" />
        </mxCell>
        <mxCell id="kIqzt4APMeg7fTaLDbrO-26" value="" style="endArrow=classic;html=1;entryX=0.5;entryY=0;entryDx=0;entryDy=0;" edge="1" parent="1" source="kIqzt4APMeg7fTaLDbrO-25" target="kIqzt4APMeg7fTaLDbrO-8">
          <mxGeometry width="50" height="50" relative="1" as="geometry">
            <mxPoint x="223.5" y="881" as="sourcePoint" />
            <mxPoint x="273.5" y="831" as="targetPoint" />
          </mxGeometry>
        </mxCell>
        <mxCell id="kIqzt4APMeg7fTaLDbrO-28" value="" style="endArrow=classic;html=1;entryX=0.75;entryY=1;entryDx=0;entryDy=0;exitX=0.75;exitY=0;exitDx=0;exitDy=0;" edge="1" parent="1" source="kIqzt4APMeg7fTaLDbrO-2" target="kIqzt4APMeg7fTaLDbrO-38">
          <mxGeometry width="50" height="50" relative="1" as="geometry">
            <mxPoint x="362.5" y="841" as="sourcePoint" />
            <mxPoint x="412.5" y="791" as="targetPoint" />
          </mxGeometry>
        </mxCell>
        <mxCell id="kIqzt4APMeg7fTaLDbrO-29" value="Buyer" style="shape=umlActor;verticalLabelPosition=bottom;labelBackgroundColor=#ffffff;verticalAlign=top;html=1;outlineConnect=0;" vertex="1" parent="1">
          <mxGeometry x="234" y="1281" width="30" height="60" as="geometry" />
        </mxCell>
        <mxCell id="kIqzt4APMeg7fTaLDbrO-30" value="" style="endArrow=classic;html=1;exitX=0.5;exitY=0.5;exitDx=0;exitDy=0;exitPerimeter=0;entryX=0.5;entryY=1;entryDx=0;entryDy=0;" edge="1" parent="1" source="kIqzt4APMeg7fTaLDbrO-29" target="kIqzt4APMeg7fTaLDbrO-7">
          <mxGeometry width="50" height="50" relative="1" as="geometry">
            <mxPoint x="-57.5" y="841" as="sourcePoint" />
            <mxPoint x="-7.5" y="791" as="targetPoint" />
          </mxGeometry>
        </mxCell>
        <mxCell id="kIqzt4APMeg7fTaLDbrO-31" value="6’.查看结果" style="edgeLabel;html=1;align=center;verticalAlign=middle;resizable=0;points=[];" vertex="1" connectable="0" parent="kIqzt4APMeg7fTaLDbrO-30">
          <mxGeometry x="0.1636" y="2" relative="1" as="geometry">
            <mxPoint as="offset" />
          </mxGeometry>
        </mxCell>
        <mxCell id="kIqzt4APMeg7fTaLDbrO-32" value="datamarket数据目录和kernel的管理和权限服务" style="rounded=0;whiteSpace=wrap;html=1;" vertex="1" parent="1">
          <mxGeometry x="132.5" y="871" width="120" height="60" as="geometry" />
        </mxCell>
        <mxCell id="kIqzt4APMeg7fTaLDbrO-33" value="" style="endArrow=classic;html=1;exitX=0.5;exitY=1;exitDx=0;exitDy=0;entryX=0.5;entryY=0;entryDx=0;entryDy=0;" edge="1" parent="1" source="kIqzt4APMeg7fTaLDbrO-8" target="kIqzt4APMeg7fTaLDbrO-32">
          <mxGeometry width="50" height="50" relative="1" as="geometry">
            <mxPoint x="308.5" y="936" as="sourcePoint" />
            <mxPoint x="358.5" y="886" as="targetPoint" />
          </mxGeometry>
        </mxCell>
        <mxCell id="kIqzt4APMeg7fTaLDbrO-35" value="Jupyter开发环境" style="rounded=0;whiteSpace=wrap;html=1;" vertex="1" parent="1">
          <mxGeometry x="378.5" y="721" width="120" height="60" as="geometry" />
        </mxCell>
        <mxCell id="kIqzt4APMeg7fTaLDbrO-36" value="" style="edgeStyle=orthogonalEdgeStyle;rounded=0;orthogonalLoop=1;jettySize=auto;html=1;" edge="1" parent="1" source="kIqzt4APMeg7fTaLDbrO-37" target="kIqzt4APMeg7fTaLDbrO-35">
          <mxGeometry relative="1" as="geometry" />
        </mxCell>
        <mxCell id="kIqzt4APMeg7fTaLDbrO-37" value="Developer" style="shape=umlActor;verticalLabelPosition=bottom;labelBackgroundColor=#ffffff;verticalAlign=top;html=1;outlineConnect=0;" vertex="1" parent="1">
          <mxGeometry x="423.5" y="580" width="30" height="60" as="geometry" />
        </mxCell>
        <mxCell id="kIqzt4APMeg7fTaLDbrO-38" value="datamarket任务管理服务" style="rounded=0;whiteSpace=wrap;html=1;" vertex="1" parent="1">
          <mxGeometry x="378.5" y="859" width="120" height="57" as="geometry" />
        </mxCell>
        <mxCell id="kIqzt4APMeg7fTaLDbrO-39" value="" style="endArrow=classic;html=1;exitX=0.5;exitY=1;exitDx=0;exitDy=0;entryX=0.5;entryY=0;entryDx=0;entryDy=0;" edge="1" parent="1" source="kIqzt4APMeg7fTaLDbrO-8" target="kIqzt4APMeg7fTaLDbrO-38">
          <mxGeometry width="50" height="50" relative="1" as="geometry">
            <mxPoint x="448.5" y="936" as="sourcePoint" />
            <mxPoint x="498.5" y="886" as="targetPoint" />
          </mxGeometry>
        </mxCell>
        <mxCell id="kIqzt4APMeg7fTaLDbrO-41" value="" style="endArrow=classic;html=1;exitX=0.5;exitY=1;exitDx=0;exitDy=0;entryX=0.5;entryY=0;entryDx=0;entryDy=0;" edge="1" parent="1" source="kIqzt4APMeg7fTaLDbrO-35" target="kIqzt4APMeg7fTaLDbrO-38">
          <mxGeometry width="50" height="50" relative="1" as="geometry">
            <mxPoint x="448.5" y="936" as="sourcePoint" />
            <mxPoint x="498.5" y="886" as="targetPoint" />
          </mxGeometry>
        </mxCell>
        <mxCell id="kIqzt4APMeg7fTaLDbrO-42" value="" style="endArrow=classic;html=1;exitX=0.5;exitY=1;exitDx=0;exitDy=0;entryX=0.5;entryY=0;entryDx=0;entryDy=0;" edge="1" parent="1" source="kIqzt4APMeg7fTaLDbrO-35" target="kIqzt4APMeg7fTaLDbrO-32">
          <mxGeometry width="50" height="50" relative="1" as="geometry">
            <mxPoint x="519.5" y="806" as="sourcePoint" />
            <mxPoint x="478.5" y="886" as="targetPoint" />
          </mxGeometry>
        </mxCell>
      </root>
    </mxGraphModel>
  </diagram>
</mxfile>
